<?xml version="1.0" encoding="utf-8"?>
<!-- Generator: Adobe Illustrator 24.3.0, SVG Export Plug-In . SVG Version: 6.00 Build 0)  -->
<svg version="1.1" id="Layer_1" xmlns="http://www.w3.org/2000/svg" xmlns:xlink="http://www.w3.org/1999/xlink" x="0px" y="0px"
	 viewBox="0 0 240 234" style="enable-background:new 0 0 240 234;" xml:space="preserve">
<style type="text/css">
	.st0{fill:#39B54A;}
	.st1{fill:#FFFFFF;}
</style>
<g id="Surfaces">
	<g id="Photo_Surface">
		<g id="Outline_no_shadow">
			<path class="st0" d="M42.5,0h155C221,0,240,19,240,42.5v149c0,23.5-19,42.5-42.5,42.5h-155C19,234,0,215,0,191.5v-149
				C0,19,19,0,42.5,0z"/>
		</g>
	</g>
</g>
<g>
	<path class="st1" d="M114.1,178c-0.3-0.1-0.4-0.2-0.4-0.5l0,0c-0.5-0.2-0.8-0.7-1.2-1c-2.4-2.3-4.8-4.5-7-7l0,0
		c-0.9-0.9-1.9-1.9-2.7-2.9c-0.9-0.9-1.8-1.9-2.6-2.9l0,0c-0.7-0.8-1.4-1.5-2-2.4l0,0c-0.8-0.8-1.5-1.8-2.1-2.7l0,0
		c-0.4-0.4-0.8-0.9-1.1-1.5l0,0c-1.4-1.8-2.7-3.6-3.8-5.4c-0.6-0.8-1.2-1.6-1.6-2.5l0,0c-0.7-0.9-1.2-1.8-1.7-2.8l0,0
		c-0.6-1-1.3-2-1.8-3c-0.6-0.8-1-1.6-1.4-2.4l0,0l0,0c-0.6-0.9-1.2-1.9-1.6-2.9l0,0c-0.6-0.8-1-1.7-1.4-2.6
		c-0.4-0.8-0.8-1.5-1.2-2.2l0,0c-0.4-0.8-0.9-1.7-1.3-2.5l0,0c-0.6-1-1.1-2-1.5-3.1l0,0l0,0c-0.4-0.6-0.7-1.2-0.9-1.9l0,0
		c-0.4-0.7-0.7-1.4-1-2.1l0,0l0,0c-0.4-0.7-0.7-1.4-0.9-2.1l0,0l0,0c-0.4-0.7-0.7-1.5-1-2.3l0,0c-0.3-0.8-0.7-1.6-1-2.4
		c-0.4-0.9-0.8-1.9-1.2-2.9l0,0c-0.4-0.7-0.6-1.5-0.9-2.3l0,0c-0.3-0.8-0.6-1.7-0.9-2.5l0,0c-1.9-5.4-3.5-10.9-4.5-16.5
		c0-0.1,0-0.3,0-0.5l0,0c-0.5-1.6-0.6-3.3-0.8-5c-0.4-3.6-0.7-7.2-0.2-10.8l0,0c0.1-3,0.7-5.9,1.5-8.7c1-3.3,2.4-6.5,4.2-9.5
		c0.1-0.2,0.2-0.4,0.4-0.5l0,0l0,0c0.1-0.8,0.7-1.3,1.1-2c3.6-5.4,8.2-9.9,13.7-13.8l0,0l0,0c3.1-2.3,6.5-4.3,10.2-5.9
		c3.7-1.9,7.6-3.2,11.7-4.2c0.3-0.1,0.6-0.1,0.9-0.2l0,0c0.2-0.1,0.5-0.1,0.7-0.1l0,0v-0.1h0.7c-0.2,0.1-0.5,0.2-0.7,0.3
		c-0.2,0-0.4,0.1-0.5,0.1l0,0c-4.5,1.9-8.3,4.5-11.8,7.6c-0.2,0.2-0.5,0.4-0.7,0.6l0,0c-1.6,1.7-3.3,3.4-4.7,5.3l0,0
		c-1.1,1.6-2.3,3.3-3.4,4.9c0,0.3-0.2,0.5-0.3,0.7c-3.6,6.3-5.8,13-6.9,20c-0.4,2.6-0.8,5.3-0.9,8c0,0.3-0.1,0.5-0.1,0.8
		c0,1.1,0,2.3,0,3.4c0,5.8,0.6,11.6,1.7,17.3c0,0.2,0,0.4,0,0.6l0,0c0.4,1.2,0.6,2.4,0.8,3.6l0,0c0.2,0.7,0.4,1.5,0.5,2.2
		c0,0,0,0.1,0,0.1c0.3,0.9,0.5,1.8,0.7,2.8c0.3,0.8,0.6,1.7,0.7,2.6l0,0c0.4,1,0.7,2,0.9,3.1l0,0c0.3,0.7,0.5,1.5,0.7,2.3l0,0
		c0.3,0.6,0.4,1.1,0.6,1.7l0,0l0,0c0.3,0.7,0.6,1.4,0.7,2.1l0,0c0.4,0.8,0.7,1.7,0.9,2.6c0.5,1,0.7,2,1.1,3l0,0
		c0.5,0.9,0.7,1.8,1,2.7l0,0c0.3,0.7,0.6,1.4,0.8,2.1l0,0c0.4,0.9,0.7,1.8,1.1,2.7c0.3,0.9,0.9,1.7,1.1,2.7l0,0
		c0.4,1,0.9,2.1,1.3,3.1c0.4,1,1,1.9,1.2,2.9l0,0c0.5,1,1,2,1.4,3c0.5,0.9,0.9,1.8,1.3,2.7l0,0c0,0,0,0.1-0.1,0.1
		c0,0.1-0.1,0.1-0.1,0.2c0.1,0,0.1,0,0.2,0c0.1,0,0.1-0.1,0-0.3c0.8,1.4,1.5,2.9,2.1,4.3l0,0c0.4,0.7,0.8,1.4,1,2.1
		c0.6,1,1.1,2,1.6,3l0,0l0,0c0.6,0.8,1,1.7,1.4,2.7l0,0c0.7,1,1.2,2.1,1.7,3.2l0,0l0,0c0.7,1.2,1.4,2.5,2.1,3.7l0,0
		c1.9,3.1,3.8,6.1,5.8,9.1C113.9,177.6,114.1,177.7,114.1,178z"/>
	<path class="st1" d="M120.1,187.3c4.4,0,8.7,0,13.1,0c0.7,0,0.9,0.1,0.7,0.8c-1.2,4.5-2.3,9.1-3.4,13.6c-0.1,0.6-0.4,0.7-1,0.7
		c-6.3,0-12.6,0-18.9,0c-0.6,0-0.9-0.2-1-0.7c-1.1-4.5-2.3-9.1-3.4-13.6c-0.2-0.6,0-0.8,0.7-0.8
		C111.3,187.3,115.7,187.3,120.1,187.3z"/>
	<path class="st1" d="M108.5,177.5c-0.4-0.2-0.7-0.5-1-0.8l0,0l0,0c-2.7-2.5-5.4-5-7.9-7.7c-1.4-1.4-2.8-2.8-4.1-4.3
		c-0.7-0.7-1.5-1.5-2.1-2.3c-2.8-2.9-5.5-5.9-7.9-9.1l0,0c-0.9-1-1.7-2-2.5-3.1l0,0c-0.8-0.9-1.5-1.9-2.3-2.9l0,0
		c-0.8-1-1.6-2.1-2.3-3.1l0,0c-0.8-1-1.6-2.1-2.3-3.2l0,0c-0.8-1-1.5-2.1-2.1-3.2c-0.9-1.1-1.6-2.3-2.3-3.6c-0.6-1-1.2-1.9-1.8-2.9
		c-0.6-0.9-1.1-1.8-1.6-2.8l0,0c-0.5-1-1.1-1.9-1.6-2.9c-0.7-1-1.2-2.1-1.7-3.2l0,0c-0.4-0.7-0.8-1.5-1.2-2.2l0,0
		c-0.4-0.7-0.8-1.5-1.1-2.3l0,0c-0.5-0.9-0.9-1.8-1.3-2.7l0,0l0,0c-0.5-0.9-0.9-1.8-1.2-2.7c-1.4-3-2.6-6.2-3.6-9.3
		c-1.8-5.3-3.1-10.6-3.9-16.1c0-0.1,0-0.2,0-0.2l0,0c-0.6-4.2-1.2-8.4-0.5-12.7c0.1-1.4,0.4-2.7,0.8-4c0,0,0,0,0,0s0,0,0-0.1
		c1.1-4.2,3-8.1,5.5-11.7c5.2-7.6,11.8-13.9,20.4-18.3c0.6-0.3,1.1-0.6,1.8-0.8c0,0.2-0.2,0.3-0.3,0.4C71,45.9,64.2,54,60.4,64.2
		c0,0.1-0.1,0.2-0.1,0.3c0,0,0,0,0,0c-1.2,3.6-2,7.2-2.3,10.9c0,0.1,0,0.3,0,0.4v0c-0.2,4.1,0,8.2,0.6,12.3c0,0.3,0,0.6,0,0.9l0,0
		c0.5,1.6,0.7,3.3,1,4.9c1.1,5.3,2.7,10.6,4.6,15.7c0.2,0.5,0.3,0.9,0.4,1.4l0,0c0.4,0.8,0.8,1.7,1,2.6c0.5,0.9,0.9,1.9,1.2,2.9
		c0.4,0.6,0.7,1.3,0.9,1.9c0,0,0,0,0,0.1c0.4,0.9,0.8,1.7,1.2,2.6l0,0l0,0c0.5,1.1,1.1,2.1,1.6,3.2l0,0c0.5,0.9,0.9,1.7,1.3,2.6
		c0,0,0,0,0,0.1c0.5,1,1.1,2,1.6,2.9l0,0c0.6,1,1.2,2,1.7,3c0.7,1,1.4,2.1,1.9,3.2l0,0c0.8,1.1,1.5,2.2,2.2,3.3
		c0.8,1.1,1.6,2.2,2.2,3.4l0,0l0,0c0.8,1,1.5,2.1,2.1,3.2l0,0c0.8,0.9,1.6,1.9,2.1,3l0,0c0.8,1,1.5,2,2.3,3l0,0l0,0
		c2.1,2.7,4.1,5.3,6.1,8c0.9,1.2,1.9,2.4,2.9,3.6c1.1,1.1,2,2.3,3,3.6c0.2,0.2,0.5,0.4,0.6,0.7l0,0c2.4,2.8,4.8,5.6,7.2,8.4l0,0
		C108,176.8,108.3,177.1,108.5,177.5z"/>
	<path class="st1" d="M57.8,75.8L57.8,75.8c0-0.1,0-0.3,0-0.4C57.8,75.5,57.8,75.7,57.8,75.8z"/>
	<path class="st1" d="M139.3,114.4c0,0.1,0,0.3-0.1,0.4C139.2,114.7,139.2,114.6,139.3,114.4z"/>
	<path class="st1" d="M141.5,95c-0.2,3-0.5,5.9-0.8,8.9c0,0.2-0.1,0.4-0.1,0.6l0,0c0,0.5,0,1.1-0.2,1.6l0,0l0,0
		c-0.2,2.8-0.6,5.6-1.1,8.4c0,0.1,0,0.3-0.1,0.4l0,0l0,0c-0.2,1.9-0.5,3.7-0.9,5.6c-0.3,1.6-0.6,3.3-0.9,4.9c0,0.2-0.1,0.5-0.2,0.7
		l0,0c-0.3,2.2-0.8,4.4-1.4,6.6l0,0c-0.4,2-0.8,4.1-1.4,6.1l0,0c-0.4,1.5-0.7,3-1.1,4.5c0,0.1-0.1,0.3-0.2,0.4
		c-0.3,1.4-0.6,2.8-1.1,4.2l0,0c-0.5,2.2-1.2,4.4-1.8,6.6l0,0c0,0.3-0.1,0.6-0.3,0.9l0,0c-0.6,2.3-1.3,4.6-2,6.8
		c0,0.2-0.1,0.4-0.2,0.5l0,0l0,0c-0.8,2.8-1.6,5.6-2.6,8.3l0,0c-0.7,2.4-1.5,4.8-2.3,7.2c-0.1,0.3-0.3,0.4-0.6,0.4c-1.5,0-3,0-4.5,0
		c-0.4,0-0.6-0.1-0.7-0.5c-0.3-0.9-0.6-1.9-0.9-2.8l0,0c-0.6-1.9-1.2-3.7-1.8-5.6c-0.6-1.8-1.1-3.7-1.7-5.5l0,0
		c-0.5-1.3-0.9-2.7-1.2-4l0,0l0,0c-0.4-1.1-0.7-2.1-0.9-3.2l0,0c-0.4-1-0.6-2-0.9-3l0,0c-0.4-1-0.6-2-0.8-3l0,0
		c-0.2-0.8-0.5-1.6-0.7-2.4l0,0c-0.2-0.7-0.4-1.4-0.5-2.1l0,0c-0.1-0.5-0.3-1.1-0.4-1.6c-0.2-0.9-0.4-1.7-0.6-2.6l0,0
		c-0.3-0.9-0.6-1.9-0.7-2.9l0,0c-0.4-1-0.5-2-0.8-3l0,0l0,0c-0.3-1.3-0.6-2.6-0.8-3.9l0,0c-0.2-0.8-0.5-1.6-0.5-2.4l0,0
		c-0.3-0.8-0.5-1.7-0.5-2.6c0,0,0-0.1,0-0.2c-0.3-1.2-0.5-2.3-0.7-3.6l0,0c-0.5-2.1-0.8-4.3-1.1-6.4l0,0c-0.7-3.6-1.1-7.1-1.6-10.7
		c-0.8-6.7-1.4-13.4-1.6-20.2c0-0.5,0-0.9,0-1.4c-0.1-4.8-0.1-9.6,0.3-14.4c0.4-5.1,1.1-10.2,2.3-15.2c0.3-1.3,0.7-2.6,1.1-3.9l0,0
		c0.6-1.8,1.2-3.6,2.1-5.3l0,0c1-2.8,2.7-5.2,4.6-7.5c0.8-0.9,1.6-1.9,2.6-2.6c1.6-1.5,3.4-2.8,5.4-3.7l0,0l0,0
		c0.8-0.6,2-0.7,2.8-1.3c0.4,0,0.8,0,1.2,0c0.4,0.2,0.7,0.3,1.1,0.5l0,0c1.4,0.4,2.7,1.1,3.9,1.9l0,0l0,0c1.3,0.8,2.6,1.7,3.7,2.8
		l0,0c2.3,2,4,4.5,5.5,7c0.3,0.6,0.7,1.2,1,1.8l0,0l0,0c2.2,4.3,3.4,8.8,4.3,13.5c0.5,2.5,0.8,5.1,1.2,7.6c0,0.3,0,0.6,0,0.9l0,0
		l0,0c0.4,1.6,0.4,3.2,0.5,4.9C142.2,79.8,142.1,87.4,141.5,95z"/>
	<path class="st1" d="M97.8,149.5L97.8,149.5c0,0-0.1,0-0.2,0c0-0.1,0.1-0.1,0.1-0.2C97.8,149.5,97.8,149.5,97.8,149.5z"/>
	<path class="st1" d="M175.8,83.3c-0.3,4.4-0.9,8.8-1.9,13.1c-2,8.9-5.2,17.4-9,25.7c-0.2,0.5-0.5,1.1-0.8,1.6
		c-0.6,1.5-1.3,3-2.1,4.5l0,0c-0.8,1.8-1.6,3.5-2.6,5.1l0,0c-0.8,1.8-1.8,3.6-2.9,5.3l0,0l0,0c-1.2,2.2-2.3,4.3-3.7,6.4l0,0
		c-1.3,2.3-2.7,4.6-4.2,6.8c-1.1,1.7-2.2,3.3-3.4,5c-0.4,0.5-0.8,1-1.2,1.5c-2.2,3-4.6,5.8-7.2,8.5l0,0c-1.1,1.4-2.4,2.7-3.8,4
		c-2.1,2.1-4.3,4.2-6.4,6.3c-0.1,0.1-0.3,0.2-0.4,0.3c1.1-1.7,2.2-3.3,3.2-5c1.7-2.7,3.3-5.5,4.9-8.3c0.2-0.3,0.4-0.7,0.6-1l0,0
		c1-1.9,1.9-3.7,2.9-5.6c0.5-1,1-2,1.6-3l0,0l0,0c1.2-2.4,2.4-4.9,3.6-7.4l0,0c1.1-2.4,2.2-4.8,3.3-7.2c1-2.3,1.9-4.7,2.9-7l0,0l0,0
		c0.7-1.9,1.5-3.8,2.2-5.6l0,0l0,0c0.7-1.9,1.3-3.8,2-5.8c0.6-1.9,1.2-3.7,1.8-5.6l0,0c1.1-4.2,2.3-8.4,3.2-12.7
		c0.3-1.4,0.6-2.8,0.8-4.2c0.3-2.2,0.6-4.5,0.9-6.7c0.6-5.2,0.7-10.4,0.2-15.6c-0.5-5.3-1.5-10.5-3.1-15.6
		c-1.5-4.7-3.6-9.1-6.4-13.3c-0.1-0.2-0.2-0.4-0.3-0.7c-0.7-0.8-1.3-1.6-1.9-2.4l0,0l0,0c-1.5-1.9-3.2-3.7-5-5.3l0,0
		c-2.6-2.2-5.3-4.3-8.3-6c-1.1-0.6-2.3-1.2-3.6-1.7c1.5-0.1,9.7,2.4,12.3,3.9l0,0c1.8,0.8,3.7,1.6,5.3,2.7l0,0c1.8,0.9,3.5,2,5,3.2
		l0,0l0,0c3.5,2.2,6.5,4.9,9.2,7.9c2.7,2.8,5,5.9,6.9,9.1C174.8,66.4,176.4,74.7,175.8,83.3z"/>
	<path class="st1" d="M97.8,149.6c0,0-0.1,0-0.2,0c0-0.1,0.1-0.1,0.1-0.2c0,0,0-0.1,0.1-0.1l0,0C97.9,149.4,97.9,149.5,97.8,149.6z"
		/>
	<path class="st1" d="M97.8,149.6c0,0-0.1,0-0.2,0c0-0.1,0.1-0.1,0.1-0.2c0,0,0-0.1,0.1-0.1l0,0C97.9,149.4,97.9,149.5,97.8,149.6z"
		/>
	<path class="st1" d="M187.8,83.2c-0.4,3.9-1.1,7.9-2,11.8c0,0.1-0.1,0.3-0.2,0.4l0,0c-0.4,2.5-1.2,4.9-2,7.3
		c-3.1,9.5-7.5,18.4-12.6,27.2c0,0-0.1,0.1-0.1,0.1l0,0c-1.2,2.2-2.4,4.3-3.9,6.3c-1.1,1.8-2.2,3.6-3.5,5.3
		c-1.3,2.1-2.8,4.1-4.4,6.1l0,0c-1.6,2.2-3.3,4.4-5.1,6.4c-1.5,2-3.3,4-5,5.9c-0.1,0.1-0.2,0.4-0.5,0.4c-3,3.6-6.3,6.9-9.6,10.2
		c-0.1,0.1-0.2,0.2-0.3,0.2l0,0c-2,2.2-4.1,4.1-6.3,6.1c-0.2,0.2-0.5,0.4-0.7,0.7l0,0c-0.1,0.1-0.3,0.4-0.4,0.3
		c-0.2-0.1,0.1-0.2,0.2-0.3l0,0l0,0c0.2-0.3,0.5-0.5,0.7-0.8c1.8-2.1,3.5-4.1,5.3-6.1c0.2-0.2,0.5-0.5,0.7-0.7
		c1.1-1.6,2.5-3,3.7-4.5c1.6-2,3.3-4.1,5-6.1c1.7-2.3,3.4-4.5,5.1-6.7c1.6-2.3,3.2-4.6,4.8-6.9l0,0c1.4-2.1,2.8-4.2,4.2-6.3l0,0
		c1.1-1.8,2.2-3.5,3.2-5.3c1.3-2.3,2.6-4.5,3.8-6.7l0,0c2.1-4.1,4.2-8.2,5.9-12.5c2.6-6.1,4.7-12.3,6.2-18.8c0-0.2,0.1-0.4,0.2-0.5
		c0.3-1.8,0.7-3.6,1-5.4c1.4-8.3,1.5-16.5-1.2-24.6c-1.6-4.9-4.1-9.5-7.3-13.7l0,0l0,0c-1.9-2.3-4-4.6-6.2-6.8l0,0l0,0
		c-2-1.7-4.1-3.5-6.4-5c-0.4-0.2-0.8-0.5-1.1-0.8c2.9,1.1,5.5,2.5,7.8,4.3l0,0l0,0c3.1,2.1,5.8,4.5,8.3,7.2c0.7,0.7,1.3,1.3,1.9,2
		l0,0c5.1,5.9,8.9,12.3,10.4,19.8C188.3,76.1,188.2,79.6,187.8,83.2z"/>
	<path class="st1" d="M126.3,177.5c0,0.2-0.1,0.5-0.4,0.5C125.8,177.7,126.1,177.6,126.3,177.5L126.3,177.5z"/>
</g>
</svg>
